<?xml version="1.0" encoding="UTF-8"?>
<svg width="150px" height="150px" viewBox="0 0 150 150" version="1.1" xmlns="http://www.w3.org/2000/svg" xmlns:xlink="http://www.w3.org/1999/xlink">
    <defs>
        <linearGradient y1="0%" y2="100%" id="linearGradient">
            <stop stop-color="#9768D2" offset="0%"></stop>
            <stop stop-color="#7A52AB" offset="100%"></stop>
        </linearGradient>
    </defs>
    <g stroke="none" stroke-width="1" fill="url(#linearGradient)" fill-rule="evenodd">
        <path d="M87.559 15.889 119.648 34.416C121.915 31.413 125.513 29.472 129.565 29.472 136.423 29.472 141.982 35.031 141.982 41.889 141.982 47.702 137.987 52.582 132.593 53.934L132.593 96.066C137.987 97.418 141.982 102.298 141.982 108.111 141.982 114.969 136.423 120.528 129.565 120.528 125.513 120.528 121.915 118.587 119.648 115.584L87.559 134.111C87.793 135.063 87.917 136.059 87.917 137.083 87.917 143.941 82.358 149.5 75.5 149.5 68.642 149.5 63.083 143.941 63.083 137.083 63.083 136.153 63.185 135.246 63.379 134.374L30.834 115.584C28.568 118.587 24.969 120.528 20.917 120.528 14.059 120.528 8.5 114.969 8.5 108.111 8.5 102.298 12.495 97.418 17.89 96.066L17.89 53.934C12.495 52.582 8.5 47.702 8.5 41.889 8.5 35.031 14.059 29.472 20.917 29.472 24.969 29.472 28.568 31.413 30.834 34.416L63.379 15.626C63.185 14.754 63.083 13.847 63.083 12.917 63.083 6.059 68.642.5 75.5.5 82.358.5 87.917 6.059 87.917 12.917 87.917 13.941 87.793 14.937 87.559 15.889ZM75.112 43.105 102.561 58.958 114.303 52.107 75.112 29.472 35.921 52.107 35.921 97.376 75.112 120.01 114.303 97.376 114.175 74.741 75.259 74.889 75.304 86.698 102.447 86.595 102.47 90.577 75.112 106.377 47.715 90.555 47.715 58.928 75.112 43.105Z"></path>
    </g>
</svg>