<?xml version="1.0" encoding="UTF-8"?>
<svg width="577px" height="150px" viewBox="0 0 577 150" version="1.1" xmlns="http://www.w3.org/2000/svg" xmlns:xlink="http://www.w3.org/1999/xlink">
    <defs>
        <linearGradient x1="50%" y1="-2.48949813e-15%" x2="50%" y2="100%" id="linearGradient-1">
            <stop stop-color="#9768D2" offset="0%"></stop>
            <stop stop-color="#7A52AB" offset="100%"></stop>
        </linearGradient>
    </defs>
    <g id="Artboard-6" stroke="none" stroke-width="1" fill="none" fill-rule="evenodd">
        <path d="M87.559 15.889 119.648 34.416C121.915 31.413 125.513 29.472 129.565 29.472 136.423 29.472 141.982 35.031 141.982 41.889 141.982 47.702 137.987 52.582 132.593 53.934L132.593 96.066C137.987 97.418 141.982 102.298 141.982 108.111 141.982 114.969 136.423 120.528 129.565 120.528 125.513 120.528 121.915 118.587 119.648 115.584L87.559 134.111C87.793 135.063 87.917 136.059 87.917 137.083 87.917 143.941 82.358 149.5 75.5 149.5 68.642 149.5 63.083 143.941 63.083 137.083 63.083 136.153 63.185 135.246 63.379 134.374L30.834 115.584C28.568 118.587 24.969 120.528 20.917 120.528 14.059 120.528 8.5 114.969 8.5 108.111 8.5 102.298 12.495 97.418 17.89 96.066L17.89 53.934C12.495 52.582 8.5 47.702 8.5 41.889 8.5 35.031 14.059 29.472 20.917 29.472 24.969 29.472 28.568 31.413 30.834 34.416L63.379 15.626C63.185 14.754 63.083 13.847 63.083 12.917 63.083 6.059 68.642.5 75.5.5 82.358.5 87.917 6.059 87.917 12.917 87.917 13.941 87.793 14.937 87.559 15.889ZM216.756 111.263C211.243 111.263 206.235 110.342 201.731 108.5 197.226 106.658 193.377 104.113 190.184 100.865 186.99 97.617 184.52 93.799 182.772 89.413 181.024 85.026 180.15 80.254 180.15 75.097 180.15 70.007 181.041 65.352 182.822 60.932 184.604 56.512 187.108 52.644 190.335 49.329 193.562 46.014 197.411 43.385 201.882 41.443 206.353 39.5 211.243 38.529 216.555 38.529 219.647 38.529 222.454 38.747 224.975 39.182 227.496 39.618 229.832 40.237 231.984 41.041 234.135 41.844 236.169 42.832 238.085 44.004 240.001 45.176 241.866 46.533 243.682 48.073L235.816 57.416C234.471 56.277 233.093 55.239 231.681 54.302 230.269 53.364 228.79 52.577 227.244 51.941 225.698 51.305 224 50.802 222.151 50.434 220.303 50.066 218.269 49.881 216.05 49.881 212.823 49.881 209.815 50.551 207.025 51.891 204.235 53.23 201.815 55.022 199.764 57.265 197.714 59.509 196.1 62.138 194.924 65.151 193.747 68.165 193.159 71.346 193.159 74.695 193.159 78.513 193.73 81.861 194.873 84.942 196.016 88.023 197.646 90.668 199.764 92.879 201.882 95.089 204.403 96.83 207.327 98.103 210.252 99.375 213.529 100.011 217.16 100.011 220.521 100.011 223.664 99.526 226.589 98.555 229.513 97.583 232.051 96.294 234.202 94.687L234.202 81.527 216.151 81.527 216.151 70.777 246.203 70.777 246.203 100.313C244.455 101.786 242.522 103.193 240.404 104.532 238.286 105.872 236.001 107.044 233.547 108.048 231.093 109.053 228.454 109.84 225.631 110.409 222.807 110.978 219.849 111.263 216.756 111.263ZM267.38 39.735 279.784 39.735 279.784 98.806 316.894 98.806 316.894 110.057 267.38 110.057 267.38 39.735ZM363.787 111.162C359.215 111.162 355.081 110.509 351.383 109.203 347.685 107.897 344.526 105.938 341.904 103.326 339.282 100.715 337.265 97.483 335.853 93.632 334.441 89.781 333.735 85.311 333.735 80.221L333.735 39.735 346.139 39.735 346.139 79.718C346.139 86.282 347.719 91.271 350.879 94.687 354.039 98.103 358.408 99.81 363.988 99.81 369.501 99.81 373.838 98.17 376.997 94.888 380.157 91.606 381.737 86.717 381.737 80.221L381.737 39.735 394.141 39.735 394.141 79.618C394.141 84.842 393.418 89.429 391.973 93.381 390.527 97.332 388.494 100.631 385.872 103.276 383.25 105.922 380.073 107.897 376.342 109.203 372.611 110.509 368.426 111.162 363.787 111.162ZM449.908 111.263C444.462 111.263 439.487 110.309 434.983 108.4 430.478 106.491 426.613 103.896 423.386 100.614 420.159 97.332 417.637 93.498 415.822 89.111 414.007 84.724 413.099 80.053 413.099 75.097 413.099 69.94 414.007 65.269 415.822 60.882 417.637 56.495 420.192 52.644 423.486 49.329 426.781 46.014 430.68 43.385 435.184 41.443 439.689 39.5 444.664 38.529 450.109 38.529 455.555 38.529 460.53 39.484 465.034 41.392 469.538 43.301 473.404 45.896 476.631 49.178 479.858 52.46 482.379 56.294 484.194 60.681 486.01 65.068 486.917 69.739 486.917 74.695 486.917 79.852 486.01 84.524 484.194 88.91 482.379 93.297 479.825 97.148 476.53 100.463 473.236 103.779 469.337 106.407 464.832 108.35 460.328 110.292 455.353 111.263 449.908 111.263ZM450.109 99.911C453.605 99.911 456.815 99.258 459.74 97.952 462.664 96.646 465.169 94.871 467.253 92.627 469.337 90.384 470.967 87.755 472.144 84.741 473.32 81.727 473.908 78.513 473.908 75.097L473.908 74.896C473.908 71.48 473.32 68.249 472.144 65.202 470.967 62.154 469.32 59.509 467.202 57.265 465.085 55.022 462.547 53.23 459.589 51.891 456.63 50.551 453.403 49.881 449.908 49.881 446.412 49.881 443.201 50.534 440.277 51.84 437.352 53.146 434.848 54.921 432.764 57.165 430.68 59.408 429.05 62.037 427.873 65.051 426.697 68.065 426.108 71.279 426.108 74.695L426.108 74.896C426.108 78.312 426.697 81.543 427.873 84.591 429.05 87.638 430.697 90.283 432.814 92.527 434.932 94.771 437.47 96.562 440.428 97.902 443.386 99.241 446.613 99.911 450.109 99.911ZM506.985 39.735 518.481 39.735 556.298 88.358 556.298 39.735 568.5 39.735 568.5 110.057 558.113 110.057 519.187 60.028 519.187 110.057 506.985 110.057 506.985 39.735ZM75.112 43.105 102.561 58.958 114.303 52.107 75.112 29.472 35.921 52.107 35.921 97.376 75.112 120.01 114.303 97.376 114.175 74.741 75.259 74.889 75.304 86.698 102.447 86.595 102.47 90.577 75.112 106.377 47.715 90.555 47.715 58.928 75.112 43.105Z" id="a_gluon_purple" fill="url(#linearGradient-1)"></path>
    </g>
</svg>